# xmcd
#
# Track frame offsets:
#	150
#	20412
#	40067
#	57377
#	74176
#	103402
#	119768
#	140738
#	160711
#	180096
#	200016
#	216258
#	233539
#	252555
#	269093
#	298264
#	318031
#
# Disc length: 4483 seconds
#
# Revision: 1
# Processed by: cddbd v1.5.2PL0 Copyright (c) Steve Scherf et al.
# Submitted via: EasyCDDAExtractor 12.0.1.1
#
DISCID=12118111
DTITLE=artiste - Album
DYEAR=1900
DGENRE=
TTITLE0=Titre de la piste 1
TTITLE1=Titre de la piste 2
TTITLE2=Titre de la piste 3
TTITLE3=Titre de la piste 4
TTITLE4=Titre de la piste 5
TTITLE5=Titre de la piste 6
TTITLE6=Titre de la piste 7
TTITLE7=Titre de la piste 8
TTITLE8=Titre de la piste 9
TTITLE9=Titre de la piste 10
TTITLE10=Titre de la piste 11
TTITLE11=Titre de la piste 12
TTITLE12=Titre de la piste 13
TTITLE13=Titre de la piste 14
TTITLE14=Titre de la piste 15
TTITLE15=Titre de la piste 16
TTITLE16=Titre de la piste 17
EXTD=
EXTT0=
EXTT1=
EXTT2=
EXTT3=
EXTT4=
EXTT5=
EXTT6=
EXTT7=
EXTT8=
EXTT9=
EXTT10=
EXTT11=
EXTT12=
EXTT13=
EXTT14=
EXTT15=
EXTT16=
PLAYORDER=
